<?xml version="1.0" encoding="UTF-8"?>
<svg xmlns="http://www.w3.org/2000/svg" xmlns:xlink="http://www.w3.org/1999/xlink" width="120px" height="120px" viewBox="0 0 120 120" version="1.1">
<g id="surface1">
<path style=" stroke:none;fill-rule:nonzero;fill:rgb(0%,0%,0%);fill-opacity:1;" d="M 9.757812 27.742188 C 6.007812 35.242188 3.003906 56.25 3.75 75 L 3.75 108.75 L 37.5 107.257812 C 69.757812 105.746094 100.503906 90 114.757812 66.753906 C 120 58.507812 117.742188 48.75 108.75 35.242188 C 97.5 17.257812 90.746094 15 55.503906 15 C 24.757812 15 14.253906 18.003906 9.757812 27.742188 Z M 105 41.25 C 113.992188 57.742188 113.246094 61.492188 101.25 75 C 87.742188 89.253906 47.257812 105 21.007812 105 C 6.007812 105 3.003906 86.25 16.492188 78.003906 C 21.753906 75 22.5 75.746094 19.496094 81.007812 C 15.746094 86.996094 22.5 90 41.25 90 C 56.25 90 66.753906 86.996094 63.75 83.246094 C 61.492188 79.496094 63.75 73.507812 68.246094 70.503906 C 74.253906 66.753906 75 68.246094 71.25 75.746094 C 67.5 81.753906 71.25 81.007812 80.242188 72.742188 C 88.507812 66.007812 97.5 62.257812 101.25 65.242188 C 104.253906 68.992188 105.746094 66.753906 103.507812 60.746094 C 101.996094 54.757812 96.007812 48.003906 90 46.492188 C 84.757812 44.253906 82.5 46.492188 85.503906 51.753906 C 90.746094 60.746094 88.507812 60.746094 43.507812 63.75 C 15 65.242188 3.75 55.503906 11.996094 33.75 C 15 25.503906 27.742188 22.5 55.503906 22.5 C 90 22.5 96.007812 24.757812 105 41.25 Z M 105 41.25 "/>
<path style=" stroke:none;fill-rule:nonzero;fill:rgb(0%,0%,0%);fill-opacity:1;" d="M 19.496094 48.75 C 22.5 54.757812 26.996094 57.742188 30.746094 55.503906 C 41.25 49.496094 38.246094 37.5 26.25 37.5 C 19.496094 37.5 17.257812 41.996094 19.496094 48.75 Z M 19.496094 48.75 "/>
<path style=" stroke:none;fill-rule:nonzero;fill:rgb(0%,0%,0%);fill-opacity:1;" d="M 52.5 45 C 66.753906 54.757812 75 54.757812 75 45 C 75 40.503906 67.5 37.5 58.507812 37.5 C 44.253906 37.5 43.507812 38.992188 52.5 45 Z M 52.5 45 "/>
</g>
</svg>
