<?xml version="1.0" standalone="no"?>
<!DOCTYPE svg PUBLIC "-//W3C//DTD SVG 20010904//EN"
 "http://www.w3.org/TR/2001/REC-SVG-20010904/DTD/svg10.dtd">
<svg version="1.0" xmlns="http://www.w3.org/2000/svg"
 width="16.000000pt" height="16.000000pt" viewBox="0 0 16.000000 16.000000"
 preserveAspectRatio="xMidYMid meet">

<g transform="translate(0.000000,16.000000) scale(0.100000,-0.100000)"
fill="#000000" stroke="none">
<path d="M13 123 c-5 -10 -9 -38 -8 -63 l0 -45 45 2 c43 2 84 23 103 54 7 11
4 24 -8 42 -15 24 -24 27 -71 27 -41 0 -55 -4 -61 -17z m127 -18 c12 -22 11
-27 -5 -45 -18 -19 -72 -40 -107 -40 -20 0 -24 25 -6 36 7 4 8 3 4 -4 -5 -8 4
-12 29 -12 20 0 34 4 30 9 -3 5 0 13 6 17 8 5 9 3 4 -7 -5 -8 0 -7 12 4 11 9
23 14 28 10 4 -5 6 -2 3 6 -2 8 -10 17 -18 19 -7 3 -10 0 -6 -7 7 -12 4 -12
-56 -16 -38 -2 -53 11 -42 40 4 11 21 15 58 15 46 0 54 -3 66 -25z"/>
<path d="M26 95 c4 -8 10 -12 15 -9 14 8 10 24 -6 24 -9 0 -12 -6 -9 -15z"/>
<path d="M70 100 c19 -13 30 -13 30 0 0 6 -10 10 -22 10 -19 0 -20 -2 -8 -10z"/>
</g>
</svg>
